<svg width="64" height="64" viewBox="0 0 64 64" fill="none" xmlns="http://www.w3.org/2000/svg">
  <!-- Go Bull: distinct bull-head mark (no Hiddify bars) -->
  <rect width="64" height="64" rx="18" fill="#0B3D2E"/>
  <path
    d="M18 22c2.2-5.3 7.5-9 14-9s11.8 3.7 14 9c4.5-1.1 8.5.8 10 4.4-3.1 1.1-5.9 3-7.6 5.6.4 1.4.6 2.9.6 4.4 0 9.1-7.6 16.6-17 16.6S15 45.5 15 36.4c0-1.5.2-3 .6-4.4-1.7-2.6-4.5-4.5-7.6-5.6 1.5-3.6 5.5-5.5 10-4.4Z"
    fill="#F4D35E"/>
  <path
    d="M23.5 24.5c-2.4 0-4.6 1.4-5.6 3.6 3 .9 5.7 2.7 7.7 5.2.8-1.3 1.9-2.4 3.2-3.2-1-3.3-3.2-5.6-5.3-5.6Zm17 0c2.4 0 4.6 1.4 5.6 3.6-3 .9-5.7 2.7-7.7 5.2-.8-1.3-1.9-2.4-3.2-3.2 1-3.3 3.2-5.6 5.3-5.6Z"
    fill="#E3B23C"/>
  <path d="M26.5 38.5c1.6 0 3 1.3 3 3s-1.4 3-3 3-3-1.3-3-3 1.4-3 3-3Zm11 0c1.6 0 3 1.3 3 3s-1.4 3-3 3-3-1.3-3-3 1.4-3 3-3Z" fill="#0B3D2E"/>
  <path d="M32 46c2.4 0 4.4-1.1 5.7-2.8-1.6-.6-3.6-1-5.7-1s-4.1.4-5.7 1c1.3 1.7 3.3 2.8 5.7 2.8Z" fill="#0B3D2E"/>
</svg>
