<svg width="64" height="64" viewBox="0 0 64 64" fill="none" xmlns="http://www.w3.org/2000/svg">
  <!-- GO BULL mark (transparent background) -->
  <!-- Рога -->
  <path d="M8 18c0-6 4-12 10-14 2 4 2 10-2 16-2 3-5 5-8 6 0-3 0-5 0-8z" fill="#D4A017"/>
  <path d="M56 18c0-6-4-12-10-14-2 4-2 10 2 16 2 3 5 5 8 6 0-3 0-5 0-8z" fill="#D4A017"/>

  <!-- Голова -->
  <ellipse cx="32" cy="36" rx="18" ry="16" fill="#F0C55E"/>

  <!-- Морда -->
  <ellipse cx="32" cy="44" rx="10" ry="8" fill="#E3B23C"/>

  <!-- Ноздри -->
  <ellipse cx="28" cy="46" rx="2.5" ry="3" fill="#1A1A1A"/>
  <ellipse cx="36" cy="46" rx="2.5" ry="3" fill="#1A1A1A"/>

  <!-- Глаза -->
  <ellipse cx="24" cy="32" rx="4" ry="3.5" fill="#1A1A1A"/>
  <ellipse cx="40" cy="32" rx="4" ry="3.5" fill="#1A1A1A"/>
  <circle cx="25" cy="31.5" r="1.5" fill="#FFF"/>
  <circle cx="41" cy="31.5" r="1.5" fill="#FFF"/>

  <!-- Брови -->
  <path d="M18 28l8-3" stroke="#1A1A1A" stroke-width="2.5" stroke-linecap="round"/>
  <path d="M46 28l-8-3" stroke="#1A1A1A" stroke-width="2.5" stroke-linecap="round"/>

  <!-- Кольцо -->
  <circle cx="32" cy="52" r="4" stroke="#DDAA45" stroke-width="2" fill="none"/>
</svg>


