<svg width="64" height="64" viewBox="0 0 64 64" fill="none" xmlns="http://www.w3.org/2000/svg">
  <!-- GO BULL: Лёгкий “пыльный” шум для фона -->
  <rect width="64" height="64" fill="#000000" fill-opacity="0"/>
  <!-- золотистые точки -->
  <g fill="#E3B23C" fill-opacity="0.08">
    <circle cx="6" cy="10" r="1.2"/>
    <circle cx="18" cy="4" r="0.9"/>
    <circle cx="30" cy="12" r="1.1"/>
    <circle cx="44" cy="6" r="1.3"/>
    <circle cx="58" cy="14" r="1.0"/>
    <circle cx="12" cy="26" r="1.1"/>
    <circle cx="28" cy="22" r="0.9"/>
    <circle cx="40" cy="30" r="1.0"/>
    <circle cx="54" cy="26" r="1.2"/>
    <circle cx="20" cy="40" r="1.2"/>
    <circle cx="34" cy="46" r="1.0"/>
    <circle cx="48" cy="40" r="1.1"/>
    <circle cx="8" cy="50" r="1.0"/>
    <circle cx="24" cy="58" r="1.1"/>
    <circle cx="42" cy="54" r="0.9"/>
    <circle cx="58" cy="48" r="1.2"/>
  </g>
  <!-- светлые точки -->
  <g fill="#FFFFFF" fill-opacity="0.05">
    <circle cx="14" cy="16" r="0.8"/>
    <circle cx="26" cy="6" r="0.7"/>
    <circle cx="38" cy="18" r="0.8"/>
    <circle cx="52" cy="8" r="0.7"/>
    <circle cx="8" cy="34" r="0.9"/>
    <circle cx="22" cy="32" r="0.8"/>
    <circle cx="36" cy="36" r="0.8"/>
    <circle cx="50" cy="32" r="0.9"/>
    <circle cx="16" cy="52" r="0.8"/>
    <circle cx="30" cy="56" r="0.7"/>
    <circle cx="46" cy="60" r="0.8"/>
  </g>
</svg>

